<svg width="290" height="71" viewBox="0 0 290 71" fill="none" xmlns="http://www.w3.org/2000/svg">
<g clip-path="url(#clip0_296_198)">
<path d="M103.244 0C100.161 0 98.0806 2.17976 98.0806 5.42146V24.9755C95.4492 22.5621 91.5449 20.5481 86.7095 20.5481C72.7587 20.5481 65.4637 33.2254 65.4637 45.7471C65.4637 58.2687 72.7587 70.9381 86.7095 70.9381C91.7746 70.9381 95.641 69.4929 98.2805 66.6984C98.742 69.2454 100.562 70.9381 103.244 70.9381C106.341 70.9381 108.421 68.7584 108.421 65.5127V5.42146C108.421 2.17976 106.341 0 103.244 0ZM87.3389 61.6681C78.811 61.6681 75.7939 53.0948 75.7939 45.7491C75.7939 38.4034 78.811 29.816 87.3389 29.816C95.8668 29.816 98.8799 38.3914 98.8799 45.7491C98.8799 53.1068 95.8568 61.6681 87.3389 61.6681ZM227.649 29.8141C230.371 29.8141 231.807 30.4987 233.2 31.1714C234.319 31.7164 235.482 32.2733 237.058 32.2733C239.73 32.2733 241.514 29.9198 241.514 27.7301C241.514 23.4364 235.933 20.5501 227.649 20.5501C212.178 20.5501 205.245 33.2055 205.245 45.7491C205.245 58.2927 212.178 70.9401 227.649 70.9401C236.565 70.9401 241.252 67.2393 241.252 63.5824C241.252 60.8657 239.524 59.0412 236.962 59.0412C235.65 59.0412 234.659 59.5642 233.59 60.1191C232.175 60.8417 230.595 61.6681 227.649 61.6681C218.112 61.6681 215.575 51.6576 215.575 45.7491C215.575 39.8406 218.114 29.816 227.649 29.816M42.8872 9.94866C42.0999 7.89066 40.6553 4.15393 36.1896 4.15393C31.7238 4.15393 30.3491 7.70303 29.5119 9.83488C29.4839 9.89676 22.113 29.6364 16.3305 45.1183H5.249C1.37269 45.1183 0 47.5596 0 49.6535C0 51.7474 1.37669 54.1667 5.249 54.1667H12.9657C10.9276 59.6121 9.54292 63.3129 9.54292 63.3129C9.20524 64.1453 8.8256 65.5067 8.8256 66.6145C8.8256 68.7943 10.4521 71 13.5551 71C16.828 71 17.889 68.8681 18.6622 67.3092L18.8381 66.9638L22.9741 55.7357C22.9741 55.7357 23.2099 55.047 23.5256 54.1667H36.2994C40.1738 54.1667 41.5584 51.8313 41.5584 49.6535C41.5584 47.4757 40.1758 45.1183 36.2994 45.1183H26.8504C29.3161 38.4054 33.7419 26.3707 36.1936 19.7137C38.8111 26.8259 47.313 49.9569 47.313 49.9569L49.401 55.7137C49.401 55.7357 53.4951 66.864 53.4951 66.864C54.0286 68.2214 55.0936 71 58.808 71C61.9311 71 63.5615 68.7943 63.5615 66.6145C63.5615 65.5087 63.1659 64.1593 62.7922 63.2551C62.8182 63.3129 42.8872 9.94866 42.8872 9.94866ZM186.624 29.8141C189.356 29.8141 190.794 30.4987 192.171 31.1714C193.302 31.7164 194.457 32.2733 196.039 32.2733C198.703 32.2733 200.489 29.9198 200.489 27.7301C200.489 23.4364 194.914 20.5501 186.622 20.5501C171.155 20.5501 164.242 33.2055 164.242 45.7491C164.242 58.2927 171.155 70.9401 186.622 70.9401C195.568 70.9401 200.241 67.2393 200.241 63.5824C200.241 60.8657 198.515 59.0412 195.949 59.0412C194.639 59.0412 193.632 59.5642 192.579 60.1191C191.17 60.8417 189.572 61.6681 186.622 61.6681C177.111 61.6681 174.57 51.6576 174.57 45.7491C174.57 39.8406 177.111 29.816 186.622 29.816M268.135 20.5501C253.772 20.5501 246.26 33.2274 246.26 45.7491C246.26 58.2707 253.772 70.9401 268.135 70.9401C282.497 70.9401 289.998 58.2628 289.998 45.7491C289.998 33.2354 282.489 20.5501 268.135 20.5501ZM268.135 61.6681C259.617 61.6681 256.598 53.0948 256.598 45.7491C256.598 38.4034 259.619 29.816 268.135 29.816C276.651 29.816 279.686 38.3914 279.686 45.7491C279.686 53.1068 276.657 61.6681 268.135 61.6681ZM158.837 44.6033C158.837 32.7803 150.818 20.5501 137.395 20.5501C122.759 20.5501 115.086 33.2274 115.086 45.7491C115.086 57.3725 121.049 70.9401 137.835 70.9401C146.998 70.9401 157.868 65.0496 157.868 60.0712C157.868 57.0072 155.738 55.3504 153.748 55.3504C152.303 55.3504 151.104 56.2906 149.706 57.3745C147.378 59.187 144.199 61.6701 137.929 61.6701C130.863 61.6701 126.062 57.0312 125.515 50.0228H153.224C157.057 50.0228 158.835 48.2981 158.835 44.6053M125.507 41.6471C125.924 37.5849 127.93 29.4647 137.361 29.816C144.898 29.816 147.971 36.4751 148.411 41.6471H125.507Z" fill="white"/>
</g>
<defs>
<clipPath id="clip0_296_198">
<rect width="290" height="71" fill="white"/>
</clipPath>
</defs>
</svg>
