<svg width="76" height="14" viewBox="0 0 76 14" fill="none" xmlns="http://www.w3.org/2000/svg">
<path d="M8.33899 9.86502L3.154 9.85878L2.0111 13.0024L0.311099 13.0004L4.84809 0.918809L6.56508 0.920876L11.2081 13.0135L9.50809 13.0114L8.33899 9.86502ZM3.66577 8.43139L7.79677 8.43636L5.74662 2.90889L5.71291 2.67085L5.66162 2.90879L3.66577 8.43139ZM16.7778 13.2752C13.5478 13.2713 12.1219 11.5356 12.1266 7.76157L12.1351 0.92758L13.8351 0.929626L13.8267 7.69562C13.8233 10.4496 14.6888 11.6747 16.7798 11.6772C18.8708 11.6797 19.6883 10.4737 19.6917 7.70268L19.7001 0.936685L21.4341 0.938773L21.4256 7.77277C21.4209 11.5468 19.8548 13.2789 16.7778 13.2752ZM24.042 0.941912L28.139 0.946843C29.125 0.94803 30.0087 1.15309 30.8242 1.56208C32.4552 2.41404 33.5072 4.04731 33.504 6.5803L33.503 7.4303C33.5014 8.6883 33.2791 9.72504 32.8191 10.5405C31.882 12.2224 30.249 13.0364 28.226 13.034L24.027 13.0289L24.042 0.941912ZM25.6892 2.38889L25.6778 11.5689L28.1598 11.5719C28.8908 11.5728 29.503 11.4205 30.0644 11.0982C31.1872 10.4535 31.8347 9.2303 31.8371 7.3093L31.8379 6.6973C31.8391 5.7453 31.687 4.96312 31.3478 4.31671C30.6864 3.04091 29.5312 2.39352 28.0692 2.39176L25.6892 2.38889ZM42.2726 9.90586L37.0876 9.89962L35.9447 13.0432L34.2447 13.0412L38.7817 0.959653L40.4987 0.961719L45.1417 13.0543L43.4417 13.0523L42.2726 9.90586ZM37.5993 8.47223L41.7303 8.47721L39.6802 2.94974L39.6465 2.71169L39.5952 2.94963L37.5993 8.47223ZM56.2559 8.71569C55.9633 11.5883 54.3292 13.3204 51.0992 13.3165C47.7332 13.3124 45.8656 11.3552 45.8703 7.53019L45.8714 6.64619C45.8762 2.83819 47.8507 0.766568 51.1827 0.770578C54.1067 0.774098 55.8559 2.2212 56.1753 5.14559L54.4413 5.1435C54.2226 3.29024 53.1869 2.26899 51.1809 2.26658C48.8859 2.26381 47.575 3.80924 47.5713 6.73324L47.5704 7.46424C47.567 10.2352 48.8231 11.7327 51.1691 11.7356C53.2261 11.738 54.2816 10.5833 54.4879 8.71356L56.2559 8.71569ZM57.4478 13.0691L57.4497 11.5221L59.7787 11.5249L59.7899 2.48094L57.4609 2.47814L57.4628 0.982138L63.7188 0.989668L63.7169 2.48567L61.3879 2.48286L61.3767 11.5269L63.7057 11.5297L63.7038 13.0767L57.4478 13.0691ZM73.085 9.94295L67.9 9.93671L66.7571 13.0803L65.0571 13.0783L69.5941 0.99674L71.3111 0.998806L75.9541 13.0914L74.2541 13.0894L73.085 9.94295ZM68.4118 8.50932L72.5428 8.51429L70.4927 2.98682L70.459 2.74878L70.4077 2.98672L68.4118 8.50932Z" fill="#F86D48"/>
</svg>
