<svg width="116" height="14" viewBox="0 0 116 14" fill="none" xmlns="http://www.w3.org/2000/svg">
<path d="M11.3155 8.6616C11.0229 11.5342 9.38878 13.2663 6.15878 13.2624C2.79278 13.2583 0.925207 11.3011 0.92995 7.4761L0.931047 6.5921C0.935769 2.7841 2.91034 0.712476 6.24234 0.716487C9.16634 0.720006 10.9155 2.16711 11.2349 5.0915L9.50092 5.08941C9.28222 3.23615 8.24648 2.2149 6.24048 2.21249C3.94548 2.20972 2.63457 3.75515 2.63094 6.67914L2.63003 7.41014C2.6266 10.1811 3.88274 11.6787 6.22874 11.6815C8.28574 11.684 9.34117 10.5292 9.54749 8.65947L11.3155 8.6616ZM15.0734 8.32612L15.0676 13.0181L13.4186 13.0161L13.4336 0.929143L18.1086 0.93477C21.3046 0.938617 22.5949 2.28317 22.5922 4.49317C22.5901 6.15917 21.807 7.11023 20.3784 7.56751C21.721 7.90912 22.2979 8.74282 22.2957 10.5278L22.2934 12.4148C22.293 12.6868 22.3778 12.8909 22.5646 13.0271L20.7796 13.025C20.6438 12.8888 20.5761 12.6677 20.5764 12.3957L20.5787 10.5597C20.5808 8.87675 19.8844 8.33191 17.9634 8.3296L15.0734 8.32612ZM15.0808 2.37613L15.0752 6.89812L18.0162 6.90166C19.8352 6.90385 20.9072 6.14014 20.9091 4.59314C20.9108 3.18214 20.0788 2.38214 18.0728 2.37973L15.0808 2.37613ZM33.4073 13.0402L24.8903 13.0299L24.9053 0.942951L33.1673 0.952895L33.1655 2.39789L26.5185 2.38989L26.5137 6.21489L32.1577 6.22168L32.1559 7.66668L26.512 7.65989L26.5071 11.5529L33.4091 11.5612L33.4073 13.0402ZM42.7872 9.90648L37.6022 9.90024L36.4593 13.0439L34.7593 13.0418L39.2963 0.960272L41.0133 0.962339L45.6563 13.0549L43.9563 13.0529L42.7872 9.90648ZM38.114 8.47285L42.245 8.47783L40.1948 2.95035L40.1611 2.71231L40.1098 2.95025L38.114 8.47285ZM49.8414 2.45197L49.8282 13.06L48.1452 13.0579L48.1584 2.44994L44.6224 2.44568L44.6242 0.966685L53.5322 0.977407L53.5304 2.45641L49.8414 2.45197ZM55.0738 13.0663L55.0757 11.5193L57.4047 11.5221L57.4159 2.47808L55.0869 2.47528L55.0888 0.97928L61.3448 0.98681L61.3429 2.48281L59.0139 2.48001L59.0027 11.524L61.3317 11.5268L61.3298 13.0738L55.0738 13.0663ZM67.1561 13.0808L62.6831 0.988421L64.4341 0.990529L68.0089 10.8038L71.5231 0.999061L73.2741 1.00117L68.8221 13.0828L67.1561 13.0808ZM74.564 13.0897L74.5659 11.5427L76.8949 11.5455L76.9061 2.50154L74.5771 2.49874L74.579 1.00274L80.835 1.01027L80.8331 2.50627L78.5041 2.50346L78.4929 11.5475L80.8219 11.5503L80.82 13.0973L74.564 13.0897ZM82.9941 1.01287L87.0911 1.0178C88.0771 1.01899 88.9609 1.22405 89.7763 1.63303C91.4073 2.485 92.4593 4.11826 92.4561 6.65126L92.4551 7.50126C92.4535 8.75926 92.2312 9.79599 91.7712 10.6114C90.8341 12.2933 89.2011 13.1073 87.1781 13.1049L82.9791 13.0999L82.9941 1.01287ZM84.6413 2.45985L84.6299 11.6398L87.1119 11.6428C87.8429 11.6437 88.4551 11.4914 89.0165 11.1691C90.1393 10.5245 90.7868 9.30125 90.7892 7.38026L90.79 6.76826C90.7912 5.81626 90.6391 5.03407 90.2999 4.38766C89.6385 3.11187 88.4833 2.46448 87.0213 2.46272L84.6413 2.45985ZM101.225 9.97682L96.0397 9.97058L94.8968 13.1142L93.1968 13.1122L97.7338 1.03061L99.4508 1.03268L104.094 13.1253L102.394 13.1232L101.225 9.97682ZM96.5514 8.54319L100.682 8.54816L98.6323 3.02069L98.5986 2.78265L98.5473 3.02059L96.5514 8.54319ZM105.738 1.04024L109.835 1.04518C110.821 1.04636 111.705 1.25143 112.52 1.66041C114.151 2.51237 115.203 4.14564 115.2 6.67864L115.199 7.52864C115.198 8.78663 114.975 9.82337 114.515 10.6388C113.578 12.3207 111.945 13.1347 109.922 13.1323L105.723 13.1272L105.738 1.04024ZM107.385 2.48723L107.374 11.6672L109.856 11.6702C110.587 11.6711 111.199 11.5188 111.761 11.1965C112.883 10.5519 113.531 9.32863 113.533 7.40763L113.534 6.79563C113.535 5.84363 113.383 5.06145 113.044 4.41504C112.383 3.13924 111.227 2.49185 109.765 2.49009L107.385 2.48723Z" fill="#FFFF05"/>
</svg>
