<svg width="46" height="46" viewBox="0 0 46 46" fill="none" xmlns="http://www.w3.org/2000/svg">
<g clip-path="url(#clip0_400_474)">
<path d="M23 46C35.7025 46 46 35.7025 46 23C46 10.2975 35.7025 0 23 0C10.2975 0 0 10.2975 0 23C0 35.7025 10.2975 46 23 46Z" fill="#F86D48"/>
<path d="M22.8805 33.3595C17.3816 33.3595 13.832 31.5464 13.832 28.7458C13.832 25.6899 15.3557 22.8639 17.9094 21.187L18.5989 20.7358L19.1862 21.3232C20.1736 22.3106 21.4845 22.8554 22.8805 22.8554C24.2765 22.8554 25.5874 22.3106 26.5748 21.3232L27.1622 20.7358L27.8516 21.187C30.4053 22.8639 31.929 25.6899 31.929 28.7458C31.929 31.6315 28.5496 33.3595 22.8805 33.3595ZM18.4116 23.3491C16.8028 24.677 15.8664 26.6433 15.8664 28.7543C15.8664 30.227 18.8798 31.3335 22.8805 31.3335C26.8813 31.3335 29.8946 30.2695 29.8946 28.7543C29.8946 26.6433 28.9582 24.677 27.3494 23.3491C26.0811 24.345 24.5234 24.8898 22.8805 24.8898C21.2377 24.8898 19.6799 24.345 18.4116 23.3491Z" fill="black"/>
<path d="M22.8795 21.17C19.679 21.17 17.0742 18.5652 17.0742 15.3647C17.0742 12.1641 19.679 9.55933 22.8795 9.55933C26.0801 9.55933 28.6849 12.1641 28.6849 15.3647C28.6849 18.5652 26.0801 21.17 22.8795 21.17ZM22.8795 11.5937C20.8026 11.5937 19.1086 13.2877 19.1086 15.3647C19.1086 17.4416 20.8026 19.1356 22.8795 19.1356C24.9565 19.1356 26.6505 17.4416 26.6505 15.3647C26.6505 13.2877 24.9565 11.5937 22.8795 11.5937Z" fill="black"/>
</g>
<defs>
<clipPath id="clip0_400_474">
<rect width="46" height="46" fill="white"/>
</clipPath>
</defs>
</svg>
