<svg width="45" height="45" viewBox="0 0 45 45" fill="none" xmlns="http://www.w3.org/2000/svg">
<g clip-path="url(#clip0_400_370)">
<path d="M22.5 45C34.9264 45 45 34.9264 45 22.5C45 10.0736 34.9264 0 22.5 0C10.0736 0 0 10.0736 0 22.5C0 34.9264 10.0736 45 22.5 45Z" fill="#FFFF05"/>
<path d="M29.9281 20.2855C30.0863 20.0024 30.2695 19.7109 30.2611 19.3778C30.2611 18.7116 29.6866 18.0871 29.0204 18.0871C27.9545 18.0871 26.8803 18.0871 25.8144 18.0871C25.8144 15.5223 25.8144 12.9576 25.8061 10.4011C25.8061 10.1347 25.7228 9.87652 25.5646 9.66835C25.2399 9.21035 24.5903 9.01883 24.0657 9.24366C23.8409 9.33526 23.6827 9.51846 23.5411 9.70998C21.0013 13.2407 18.4782 16.7714 15.9467 20.3105C15.7969 20.5353 15.6053 20.7518 15.547 21.0266C15.4554 21.418 15.5304 21.8676 15.7969 22.1757C15.9717 22.3839 16.2299 22.5505 16.513 22.5505C17.5039 22.5505 18.5032 22.5421 19.4941 22.5505C19.4941 24.8821 19.4858 27.222 19.5024 29.5536C19.5024 31.1608 19.5024 32.7679 19.5024 34.3667C19.5024 34.6582 19.4691 34.9579 19.594 35.2327C19.7689 35.6324 20.1603 35.9322 20.5933 35.9655C20.8848 35.9822 21.1929 35.8906 21.4177 35.7074C21.6592 35.5159 21.7924 35.2244 21.9423 34.9496C23.5495 31.9851 25.1649 29.029 26.7887 26.0645C27.8379 24.141 28.8788 22.2091 29.9364 20.2855H29.9281ZM21.0263 33.4341C21.043 29.462 21.0263 25.4983 21.0346 21.5262C21.0346 21.393 21.018 21.2514 20.9181 21.1598C20.8181 21.0433 20.6516 21.0766 20.5184 21.0682C19.4275 21.0682 18.3366 21.0682 17.2541 21.0682C18.0868 19.8858 18.9362 18.7116 19.7772 17.5375C20.6266 16.3467 21.476 15.1559 22.3254 13.9652C22.9915 13.0492 23.6327 12.1082 24.3072 11.2089C24.2906 11.4004 24.3072 11.6002 24.3072 11.7918C24.3072 14.2733 24.3072 16.7548 24.3072 19.2363C24.3072 19.3945 24.4321 19.5527 24.5987 19.561C25.931 19.586 27.255 19.536 28.5874 19.5693C26.0559 24.1909 23.5328 28.8125 21.018 33.4424L21.0263 33.4341Z" fill="black"/>
</g>
<defs>
<clipPath id="clip0_400_370">
<rect width="45" height="45" fill="white"/>
</clipPath>
</defs>
</svg>
