<svg width="46" height="46" viewBox="0 0 46 46" fill="none" xmlns="http://www.w3.org/2000/svg">
<path d="M22.5312 45.5096C34.9749 45.5096 45.0625 35.322 45.0625 22.7548C45.0625 10.1877 34.9749 0 22.5312 0C10.0876 0 0 10.1877 0 22.7548C0 35.322 10.0876 45.5096 22.5312 45.5096Z" fill="#C19DFF"/>
<path d="M13.8578 18.8467C13.9996 16.8256 14.8585 15.0149 16.4011 13.4822C18.1606 11.739 20.1702 10.8884 22.5551 10.8884C22.7969 10.8884 23.0554 10.8968 23.3056 10.9137C25.3402 11.0569 27.2748 11.958 28.7508 13.4486C30.2017 14.9139 31.0856 16.8003 31.2357 18.7793C31.5026 22.3248 29.9516 25.2218 26.6161 27.3692C26.6161 27.4956 26.6161 27.6387 26.6244 27.7819C26.6411 28.1188 26.6578 28.464 26.5243 28.7083C26.5243 28.7083 26.516 28.7251 26.5077 28.7335C25.6655 29.9462 23.2305 30.0473 22.5051 30.0473C21.1125 30.0473 19.3447 29.7273 18.5859 28.8262C18.5775 28.8093 18.5609 28.7925 18.5525 28.7756C18.4358 28.523 18.4441 28.1777 18.4608 27.8409C18.4608 27.6893 18.4691 27.5461 18.4608 27.4198C18.2023 27.1587 17.9271 26.9987 17.6686 26.8387C17.4601 26.7124 17.2433 26.5861 17.0432 26.4176C14.8418 24.5396 13.641 21.7184 13.8495 18.8551L13.8578 18.8467ZM18.9361 25.0618C19.1446 25.1965 19.3364 25.2976 19.5281 25.3986C20.2369 25.7692 20.8623 26.0976 20.6205 27.5798C20.8957 27.6387 21.1542 27.6977 21.4377 27.7314V23.9586C21.2876 23.7901 21.0541 23.6133 20.7956 23.4196C20.6372 23.2933 20.4621 23.1669 20.2953 23.0238C20.2453 22.9817 20.1702 22.9227 20.0868 22.8638C19.6949 22.5774 19.1612 22.1732 19.1696 21.71C19.1696 21.2132 19.6866 20.8089 20.312 20.8258C20.804 20.8342 21.1709 21.1626 21.4961 21.449C21.5545 21.4995 21.6045 21.55 21.6629 21.5921C21.7046 21.6258 21.7796 21.7016 21.8713 21.7942C22.0131 21.929 22.355 22.2658 22.5301 22.3922C22.6218 22.3164 22.7636 22.1985 22.8303 22.1395L22.9137 22.0721C23.0304 21.9795 23.1472 21.8532 23.2722 21.7269C23.6975 21.3058 24.1812 20.8342 24.8066 20.8342C24.8149 20.8342 24.8232 20.8342 24.8399 20.8342C25.1151 20.8342 25.3903 20.9521 25.5987 21.1458C25.8072 21.3311 25.9156 21.5669 25.8989 21.7942C25.8739 22.1648 25.4069 22.5353 24.9984 22.8553C24.915 22.9227 24.8399 22.9817 24.7732 23.0406C24.6398 23.1501 24.4897 23.2511 24.3396 23.3522C24.0311 23.5543 23.7058 23.7733 23.6225 24.0343C23.4974 24.4217 23.5391 24.2617 23.5891 24.7923C23.6141 25.0618 23.6308 25.3144 23.6308 25.5586V27.7651C23.9143 27.7314 24.1728 27.6808 24.448 27.6135C24.4647 27.6135 24.4813 27.6135 24.498 27.605C24.5064 27.4029 24.498 27.2008 24.4813 27.0071C24.4563 26.6618 24.4313 26.325 24.5814 26.0302C24.6898 25.8281 24.9733 25.6765 25.2819 25.5249C25.3402 25.4913 25.3986 25.466 25.457 25.4407C27.0413 24.5986 28.9509 22.9311 29.0343 19.8236C29.076 18.0214 28.4339 16.3371 27.2248 15.0823C25.9823 13.7938 24.2896 13.0864 22.4384 13.0864C22.3717 13.0864 22.2966 13.0864 22.2216 13.0864C19.0612 13.1791 16.2844 15.8908 16.0426 19.1246C15.8007 22.3248 17.4768 24.1354 18.9278 25.087L18.9361 25.0618Z" fill="black"/>
<path d="M19.4016 30.342C19.5267 30.3083 19.6434 30.2915 19.7685 30.2915C20.052 30.2915 20.3272 30.3673 20.6191 30.4515C20.9193 30.5357 21.2528 30.6368 21.6697 30.6705C21.9116 30.6873 22.1701 30.7041 22.4369 30.7041C23.0373 30.7041 23.6377 30.6536 24.088 30.561C24.2297 30.5357 24.3715 30.4852 24.5216 30.4262C24.7717 30.3336 25.0303 30.241 25.3471 30.241C25.4472 30.241 25.5556 30.2494 25.6557 30.2747C25.8891 30.3168 26.0976 30.4599 26.2394 30.6789C26.3811 30.8978 26.4395 31.1589 26.3895 31.3863C26.2144 32.22 24.2798 32.4558 23.1457 32.5148C22.9873 32.5232 22.8205 32.5316 22.637 32.5316C22.5953 32.5316 18.918 32.5148 18.6678 31.3863C18.5594 30.8894 18.8346 30.4852 19.3933 30.342H19.4016Z" fill="black"/>
<path d="M20.9457 32.8854H20.9624C21.0458 32.8517 21.1459 32.8433 21.2709 32.8433C21.4377 32.8433 21.6295 32.8685 21.8296 32.8854C22.0548 32.9106 22.2883 32.9359 22.5134 32.9443H22.5384C22.7219 32.9443 22.922 32.9275 23.1221 32.9106C23.3306 32.8938 23.5391 32.8769 23.7392 32.8769C24.0227 32.8769 24.4313 32.9106 24.6815 33.1801C24.8566 33.3654 24.9316 33.6265 24.9233 33.9549C24.89 34.9571 23.6975 35.0581 23.3056 35.0918C22.947 35.1255 22.6302 35.1339 22.3466 35.1339C20.9708 35.1339 20.2369 34.7634 20.1619 34.0391C20.0785 33.1549 20.7039 32.9612 20.9374 32.8854H20.9457Z" fill="black"/>
</svg>
