<svg width="60" height="84" viewBox="0 0 60 84" fill="none" xmlns="http://www.w3.org/2000/svg">
<path d="M59.0702 50.92C57.3302 41.82 51.4702 34.2 43.5102 30.02H54.4202C57.4102 30.02 59.6302 27.28 59.0702 24.34C56.4102 10.48 44.2202 0 29.5802 0C14.9402 0 2.7402 10.48 0.0901971 24.35C-0.469803 27.29 1.7502 30.03 4.7402 30.03H15.6502C7.6902 34.21 1.8302 41.82 0.0901971 50.92C-0.469803 53.86 1.7502 56.6 4.7402 56.6H15.6502C7.6902 60.78 1.8302 68.4 0.0901971 77.5C-0.469803 80.44 1.7502 83.18 4.7402 83.18H54.4202C57.4102 83.18 59.6302 80.44 59.0702 77.5C57.3302 68.4 51.4702 60.78 43.5102 56.6H54.4202C57.4102 56.6 59.6302 53.86 59.0702 50.92Z" fill="black"/>
</svg>
