<svg width="34" height="33" viewBox="0 0 34 33" fill="none" xmlns="http://www.w3.org/2000/svg">
<path d="M24.7916 8.9375H24.8058M9.91665 2.75H24.0833C27.9953 2.75 31.1666 5.82804 31.1666 9.625V23.375C31.1666 27.172 27.9953 30.25 24.0833 30.25H9.91665C6.00463 30.25 2.83331 27.172 2.83331 23.375V9.625C2.83331 5.82804 6.00463 2.75 9.91665 2.75ZM22.6666 15.6337C22.8415 16.7781 22.6401 17.9468 22.0911 18.9736C21.5422 20.0005 20.6736 20.8332 19.6089 21.3533C18.5443 21.8734 17.3378 22.0544 16.161 21.8707C14.9842 21.6869 13.8971 21.1476 13.0543 20.3296C12.2115 19.5116 11.6559 18.4565 11.4666 17.3143C11.2772 16.1721 11.4637 15.0011 11.9996 13.9678C12.5355 12.9344 13.3934 12.0914 14.4514 11.5586C15.5093 11.0258 16.7135 10.8303 17.8925 11C19.0951 11.1731 20.2085 11.717 21.0682 12.5514C21.9279 13.3858 22.4883 14.4665 22.6666 15.6337Z" stroke="white" stroke-width="2" stroke-linecap="round" stroke-linejoin="round"/>
</svg>
