<svg width="34" height="33" viewBox="0 0 34 33" fill="none" xmlns="http://www.w3.org/2000/svg">
<path d="M22.6666 11C24.921 11 27.083 11.8692 28.6771 13.4164C30.2711 14.9635 31.1666 17.062 31.1666 19.25V28.875H25.5V19.25C25.5 18.5207 25.2015 17.8212 24.6701 17.3055C24.1388 16.7897 23.4181 16.5 22.6666 16.5C21.9152 16.5 21.1945 16.7897 20.6632 17.3055C20.1318 17.8212 19.8333 18.5207 19.8333 19.25V28.875H14.1666V19.25C14.1666 17.062 15.0622 14.9635 16.6562 13.4164C18.2503 11.8692 20.4123 11 22.6666 11Z" stroke="white" stroke-width="2" stroke-linecap="round" stroke-linejoin="round"/>
<path d="M8.49998 12.375H2.83331V28.875H8.49998V12.375Z" stroke="white" stroke-width="2" stroke-linecap="round" stroke-linejoin="round"/>
<path d="M5.66665 8.25C7.23145 8.25 8.49998 7.01878 8.49998 5.5C8.49998 3.98122 7.23145 2.75 5.66665 2.75C4.10184 2.75 2.83331 3.98122 2.83331 5.5C2.83331 7.01878 4.10184 8.25 5.66665 8.25Z" stroke="white" stroke-width="2" stroke-linecap="round" stroke-linejoin="round"/>
</svg>
