<svg width="107" height="19" viewBox="0 0 107 19" fill="none" xmlns="http://www.w3.org/2000/svg">
<path d="M0.769122 18.0009L0.771041 16.4539L3.10004 16.4567L3.11125 7.41272L0.782256 7.40992L0.784112 5.91392L7.04011 5.92145L7.03825 7.41745L4.70925 7.41464L4.69804 16.4586L7.02704 16.4614L7.02512 18.0084L0.769122 18.0009ZM10.7652 18.0129L9.18425 18.011L9.19924 5.92405L10.7972 5.92597L16.6853 14.7391L17.1432 15.6406L17.0929 15.0966L17.1042 5.93356L18.6852 5.93547L18.6702 18.0225L17.1572 18.0206L11.1334 9.02038L10.7264 8.22089L10.7768 8.66295L10.7652 18.0129ZM23.0338 18.0277L21.4528 18.0258L21.4678 5.93881L23.0658 5.94074L28.9539 14.7538L29.4117 15.6554L29.3614 15.1113L29.3728 5.94833L30.9538 5.95023L30.9388 18.0372L29.4258 18.0354L23.4019 9.03514L22.9949 8.23565L23.0454 8.67772L23.0338 18.0277ZM38.43 18.3012C35.132 18.2973 33.2474 16.391 33.2522 12.481L33.2533 11.648C33.2548 10.373 33.4772 9.31927 33.9033 8.43578C34.7554 6.68581 36.3206 5.75269 38.4456 5.75525C39.4996 5.75652 40.4003 5.9786 41.1817 6.43854C42.7446 7.32442 43.6604 9.09353 43.6573 11.6605L43.6562 12.4935C43.6546 13.7855 43.4323 14.8563 43.0062 15.7227C42.1371 17.4557 40.555 18.3038 38.43 18.3012ZM38.4319 16.7712C40.6589 16.7739 41.9358 15.2625 41.9393 12.4405L41.9402 11.7265C41.9438 8.83646 40.7047 7.25397 38.4437 7.25125C36.1657 7.24851 34.9737 8.84507 34.9702 11.7011L34.9693 12.4321C34.9658 15.2541 36.1539 16.7685 38.4319 16.7712ZM48.8934 18.0588L44.4204 5.96644L46.1714 5.96855L49.7463 15.7819L53.2604 5.97708L55.0114 5.97919L50.5594 18.0608L48.8934 18.0588ZM62.044 14.9297L56.859 14.9234L55.7161 18.067L54.0161 18.065L58.5531 5.98345L60.2701 5.98552L64.9131 18.0781L63.2131 18.0761L62.044 14.9297ZM57.3708 13.496L61.5018 13.501L59.4517 7.97353L59.418 7.73549L59.3667 7.97343L57.3708 13.496ZM76.0274 13.7395C75.7348 16.6121 74.1006 18.3442 70.8706 18.3403C67.5046 18.3362 65.6371 16.379 65.6418 12.554L65.6429 11.67C65.6476 7.86199 67.6222 5.79037 70.9542 5.79438C73.8782 5.7979 75.6274 7.245 75.9468 10.1694L74.2128 10.1673C73.9941 8.31404 72.9583 7.29279 70.9524 7.29038C68.6574 7.28761 67.3464 8.83304 67.3428 11.757L67.3419 12.488C67.3385 15.259 68.5946 16.7565 70.9406 16.7594C72.9976 16.7618 74.053 15.6071 74.2594 13.7374L76.0274 13.7395ZM77.2193 18.0929L77.2212 16.5459L79.5502 16.5487L79.5614 7.50474L77.2324 7.50194L77.2343 6.00594L83.4902 6.01347L83.4884 7.50947L81.1594 7.50666L81.1482 16.5507L83.4772 16.5535L83.4753 18.1005L77.2193 18.0929ZM91.7196 0.940369L93.5556 0.942579L90.6784 4.33912L89.3184 4.33748L91.7196 0.940369ZM89.845 18.3631C86.547 18.3592 84.6624 16.4529 84.6672 12.5429L84.6683 11.7099C84.6699 10.4349 84.8922 9.38116 85.3183 8.49767C86.1704 6.74769 87.7356 5.81458 89.8606 5.81713C90.9146 5.8184 91.8153 6.04049 92.5967 6.50043C94.1596 7.38631 95.0754 9.15541 95.0723 11.7224L95.0712 12.5554C95.0696 13.8474 94.8473 14.9181 94.4212 15.7846C93.5521 17.5176 91.97 18.3657 89.845 18.3631ZM89.8469 16.8331C92.0739 16.8358 93.3508 15.3243 93.3543 12.5023L93.3552 11.7883C93.3588 8.89835 92.1197 7.31585 89.8587 7.31313C87.5807 7.31039 86.3887 8.90696 86.3852 11.763L86.3843 12.494C86.3808 15.316 87.5689 16.8304 89.8469 16.8331ZM98.9527 18.1191L97.3717 18.1172L97.3867 6.03019L98.9847 6.03212L104.873 14.8452L105.331 15.7468L105.28 15.2027L105.292 6.03971L106.873 6.04161L106.858 18.1286L105.345 18.1268L99.3208 9.12652L98.9138 8.32703L98.9643 8.76909L98.9527 18.1191Z" fill="#C19DFF"/>
</svg>
