<svg width="1737" height="474" viewBox="0 0 1737 474" fill="none" xmlns="http://www.w3.org/2000/svg">
<g clip-path="url(#clip0_553_275)">
<path d="M1670.23 91.65C1656.76 84.8081 1648.19 71.7607 1648.19 52.8262V50.5986C1648.19 41.2109 1650.25 33.4143 1654.22 26.7315C1662.15 13.2069 1675.94 5.72852 1692.6 5.72852C1701 5.72852 1708.45 7.47877 1715.12 10.9793C1728.59 18.2985 1736.84 31.6641 1736.84 49.9622V52.3489C1736.84 61.7366 1734.78 69.5331 1730.97 76.0568C1722.89 89.4224 1708.93 96.7416 1692.91 96.7416C1684.51 96.7416 1677.05 94.9914 1670.08 91.65H1670.23ZM1726.37 51.5533V50.9168C1726.37 28.4818 1713.05 15.9118 1692.75 15.9118C1672.14 15.9118 1659.29 29.1182 1659.29 51.3942V52.0306C1659.29 74.3066 1672.61 86.081 1693.23 86.081C1713.85 86.081 1726.53 74.1474 1726.53 51.7124L1726.37 51.5533ZM1685.62 73.1928H1675.47V27.368H1694.5C1707.82 27.368 1712.89 33.2552 1712.89 41.6882C1712.89 48.371 1709.41 52.1897 1703.22 54.0991C1708.93 55.0538 1711.31 58.5543 1711.31 65.5553V70.0105C1711.31 71.4425 1711.78 72.3972 1712.58 73.0336H1702.27C1701.48 72.3972 1701.32 70.9652 1701.32 70.0105V65.5553C1701.32 60.1454 1700.37 58.2361 1693.23 58.2361H1685.78V73.0336L1685.62 73.1928ZM1702.75 42.1656C1702.75 37.5513 1700.05 36.1192 1693.23 36.1192H1685.62V49.4848H1693.07C1699.57 49.6439 1702.75 47.2572 1702.75 42.1656Z" fill="white"/>
<path d="M86.4297 5.72852V468.113H0V5.72852H86.4297ZM172.225 236.921L229.316 468.113H140.032L86.4297 236.921L140.032 5.72852H229.316L172.225 236.921Z" fill="white"/>
<path d="M594.066 386.647H360.785L328.592 468.113H235.184L418.352 5.72852H536.499L719.666 468.113H626.259L594.066 386.647ZM561.714 305.817L477.663 92.4455L392.978 305.817H561.714Z" fill="white"/>
<path d="M952.472 5.72852V468.113H866.042V280.2H811.964V468.113H725.534V5.72852H811.964V193.642H866.042V5.72852H952.472Z" fill="white"/>
<path d="M1174.18 381.555V468.272H1010.04V5.8877H1096.47V381.555H1174.18Z" fill="white"/>
<path d="M1180.04 236.443C1180.04 108.675 1265.36 0 1416.81 0C1567.15 0 1652.47 108.675 1652.47 236.443C1652.47 365.325 1567.15 474 1416.81 474C1265.36 474 1180.04 365.325 1180.04 236.443ZM1566.04 236.443C1566.04 156.727 1519.42 80.9889 1416.81 80.9889C1313.1 80.9889 1266.47 156.727 1266.47 236.443C1266.47 317.432 1313.1 393.011 1416.81 393.011C1519.42 393.011 1566.04 317.273 1566.04 236.443Z" fill="white"/>
</g>
<defs>
<clipPath id="clip0_553_275">
<rect width="1737" height="474" fill="white"/>
</clipPath>
</defs>
</svg>
