<svg width="110" height="29" viewBox="0 0 110 29" fill="none" xmlns="http://www.w3.org/2000/svg">
<g clip-path="url(#clip0_171_154)">
<path d="M105.771 5.60574C104.917 5.18205 104.379 4.39333 104.379 3.22656V3.08967C104.379 2.52258 104.507 2.04022 104.762 1.62957C105.26 0.801741 106.141 0.345459 107.189 0.345459C107.727 0.345459 108.198 0.45627 108.622 0.664857C109.475 1.1081 110 1.92941 110 3.05708V3.207C110 3.77409 109.872 4.25645 109.63 4.65407C109.119 5.46886 108.238 5.91862 107.216 5.91862C106.678 5.91862 106.208 5.80781 105.771 5.61226V5.60574ZM109.321 3.15485V3.11574C109.321 1.74038 108.48 0.971218 107.189 0.971218C105.885 0.971218 105.071 1.77297 105.071 3.1353V3.17441C105.071 4.53674 105.912 5.25375 107.216 5.25375C108.521 5.25375 109.321 4.5237 109.321 3.14834V3.15485ZM106.746 4.47807H106.107V1.68171H107.31C108.151 1.68171 108.474 2.04022 108.474 2.56169C108.474 2.97234 108.258 3.207 107.862 3.31781C108.218 3.383 108.373 3.59158 108.373 4.02179V4.29556C108.373 4.3803 108.4 4.44548 108.447 4.47807H107.795C107.741 4.43896 107.734 4.35423 107.734 4.29556V4.02179C107.734 3.68936 107.667 3.57855 107.223 3.57855H106.752V4.48459L106.746 4.47807ZM107.828 2.58124C107.828 2.29444 107.66 2.2097 107.23 2.2097H106.746V3.02449H107.216C107.626 3.03752 107.828 2.8876 107.828 2.58124Z" fill="black"/>
<path d="M5.47311 0.351929V28.6479H0V0.351929H5.47311ZM10.9059 14.5032L14.5165 28.6479H8.86186L5.46638 14.5032L8.86858 0.351929H14.5232L10.9126 14.4967L10.9059 14.5032Z" fill="black"/>
<path d="M37.6196 23.6614H22.8409L20.7969 28.6479H14.8867L26.4919 0.351929H33.9686L45.5738 28.6479H39.6636L37.6196 23.6614ZM35.5756 18.7075L30.2504 5.65784L24.8849 18.7075H35.5756Z" fill="black"/>
<path d="M60.3128 0.351929V28.6479H54.8397V17.1496H51.4106V28.6479H45.9375V0.351929H51.4106V11.8502H54.8397V0.351929H60.3128Z" fill="black"/>
<path d="M74.3558 23.342V28.6479H63.9609V0.351929H69.434V23.342H74.3625H74.3558Z" fill="black"/>
<path d="M74.7266 14.4641C74.7266 6.64869 80.1257 0 89.7205 0C99.2412 0 104.64 6.64869 104.64 14.4641C104.64 22.3513 99.2412 29 89.7205 29C80.1257 29 74.7266 22.3513 74.7266 14.4641ZM99.1673 14.4641C99.1673 9.58193 96.2088 4.9474 89.7205 4.9474C83.2321 4.9474 80.1997 9.58193 80.1997 14.4641C80.1997 19.4181 83.1581 24.0461 89.7205 24.0461C96.2156 24.0461 99.1673 19.4116 99.1673 14.4641Z" fill="black"/>
</g>
<defs>
<clipPath id="clip0_171_154">
<rect width="110" height="29" fill="white"/>
</clipPath>
</defs>
</svg>
