<svg width="110" height="30" viewBox="0 0 110 30" fill="none" xmlns="http://www.w3.org/2000/svg">
<g clip-path="url(#clip0_0_383)">
<path d="M105.772 5.8006C104.918 5.36757 104.376 4.54179 104.376 3.3434V3.20242C104.376 2.60826 104.507 2.1148 104.758 1.69184C105.26 0.83585 106.133 0.362537 107.188 0.362537C107.72 0.362537 108.192 0.473313 108.614 0.694864C109.468 1.15811 109.99 2.00403 109.99 3.16213V3.31319C109.99 3.90735 109.859 4.40081 109.618 4.8137C109.106 5.65962 108.222 6.12286 107.208 6.12286C106.676 6.12286 106.204 6.01208 105.762 5.8006H105.772ZM109.327 3.26284V3.22256C109.327 1.80262 108.484 1.00705 107.198 1.00705C105.892 1.00705 105.079 1.8429 105.079 3.25277V3.29305C105.079 4.70292 105.923 5.44814 107.228 5.44814C108.534 5.44814 109.337 4.69285 109.337 3.27291L109.327 3.26284ZM106.746 4.63243H106.103V1.73212H107.309C108.152 1.73212 108.473 2.10473 108.473 2.63847C108.473 3.06143 108.253 3.30312 107.861 3.42397C108.222 3.48439 108.373 3.70594 108.373 4.14904V4.43102C108.373 4.52165 108.403 4.58207 108.453 4.62236H107.801C107.75 4.58207 107.74 4.49144 107.74 4.43102V4.14904C107.74 3.80665 107.68 3.6858 107.228 3.6858H106.756V4.62236L106.746 4.63243ZM107.831 2.66868C107.831 2.37664 107.66 2.286 107.228 2.286H106.746V3.13192H107.218C107.63 3.14199 107.831 2.99094 107.831 2.66868Z" fill="white"/>
<path d="M5.47339 0.362537V29.6274H0V0.362537H5.47339ZM10.9066 14.995L14.522 29.6274H8.86789L5.47339 14.995L8.86789 0.362537H14.522L10.9066 14.995Z" fill="white"/>
<path d="M37.6207 24.4713H22.8476L20.8089 29.6274H14.8936L26.4932 0.362537H33.9751L45.5747 29.6274H39.6594L37.6207 24.4713ZM35.572 19.3555L30.2492 5.85096L24.8863 19.3555H35.572Z" fill="white"/>
<path d="M60.3177 0.362537V29.6274H54.8443V17.7341H51.4197V29.6274H45.9463V0.362537H51.4197V12.2558H54.8443V0.362537H60.3177Z" fill="white"/>
<path d="M74.3577 24.149V29.6375H63.9633V0.372608H69.4367V24.149H74.3577Z" fill="white"/>
<path d="M74.7293 14.9648C74.7293 6.87815 80.1324 0 89.7234 0C99.244 0 104.647 6.87815 104.647 14.9648C104.647 23.1219 99.244 30 89.7234 30C80.1324 30 74.7293 23.1219 74.7293 14.9648ZM99.1737 14.9648C99.1737 9.91944 96.2211 5.12588 89.7234 5.12588C83.1553 5.12588 80.2027 9.91944 80.2027 14.9648C80.2027 20.0906 83.1553 24.8741 89.7234 24.8741C96.2211 24.8741 99.1737 20.0806 99.1737 14.9648Z" fill="white"/>
</g>
<defs>
<clipPath id="clip0_0_383">
<rect width="110" height="30" fill="white"/>
</clipPath>
</defs>
</svg>
