<svg width="335" height="77" viewBox="0 0 335 77" fill="none" xmlns="http://www.w3.org/2000/svg">
<g clip-path="url(#clip0_296_207)">
<path d="M47.5203 0H37.9229C37.3057 0 36.7994 0.5 36.7994 1.10938L37.0209 36.5312C37.0209 36.75 36.7282 36.8359 36.6016 36.6484L13.2687 0.867188C12.9205 0.328125 12.3113 0 11.6625 0H1.12352C0.506377 0 0 0.5 0 1.10938V56.2422C0 56.8516 0.506377 57.3516 1.12352 57.3516H10.721C11.3381 57.3516 11.8445 56.8516 11.8445 56.2422V21.1719C11.8445 20.9531 12.1372 20.8672 12.2559 21.0547L35.3752 56.4922C35.7233 57.0313 36.3325 57.3594 36.9813 57.3594H47.5282C48.1454 57.3594 48.6517 56.8594 48.6517 56.25V1.10938C48.6517 0.5 48.1454 0 47.5282 0H47.5203Z" fill="white"/>
<path d="M208.722 22.0781C205.771 18.4141 201.008 16.5547 195.849 16.5547C194.868 16.5547 193.381 16.7344 192.297 17.0703C191.181 17.4141 189.504 18.3281 188.499 19.2891C188.356 19.4297 188.111 19.3203 188.111 19.125V18.4141C188.111 17.8047 187.605 17.3047 186.988 17.3047H177.517C176.9 17.3047 176.393 17.8047 176.393 18.4141V56.2422C176.393 56.8516 176.892 57.3516 177.517 57.3516H186.996C187.613 57.3516 188.119 56.8516 188.119 56.2422C188.119 56.2422 188.159 33.1875 188.159 32.9531C188.159 29.3594 191.157 27.2344 194.567 27.2344C198.698 27.2344 200.794 30.1328 201.016 33.3359C201.016 33.3594 201.016 56.2422 201.016 56.2422C201.016 56.8516 201.522 57.3516 202.139 57.3516H211.61C212.227 57.3516 212.734 56.8516 212.734 56.2422V36.6484C212.734 29.9453 211.523 25.5547 208.722 22.0781Z" fill="white"/>
<path d="M168.916 17.3047H159.461C158.836 17.3047 158.33 17.8047 158.33 18.4219V19.1094C158.33 19.2969 158.116 19.4063 157.958 19.2969C155.402 17.4766 152.253 16.4844 149.223 16.4844C143.977 16.4844 139.309 18.25 135.337 21.7422C130.732 25.8203 128.398 31.0469 128.398 37.2891C128.398 42.7031 130.202 47.4219 133.763 51.3281C137.893 55.875 143.091 58.1797 149.223 58.1797C152.269 58.1797 155.205 57.2109 157.982 55.5625C158.14 55.4688 158.33 55.5781 158.33 55.7578V56.2344C158.33 56.8516 158.836 57.3516 159.461 57.3516H168.916C169.541 57.3516 170.048 56.8516 170.048 56.2344V18.4219C170.048 17.8047 169.541 17.3047 168.916 17.3047ZM149.389 47.4688C146.849 47.4688 144.753 46.6172 142.972 44.8516C141.16 43.0625 140.243 40.5156 140.243 37.2891C140.243 34.5312 140.923 32.2656 142.268 30.5703C144.088 28.2891 146.367 27.1875 149.231 27.1875C152.095 27.1875 154.089 28.0234 155.758 29.75C157.554 31.5938 158.464 34.1172 158.464 37.25C158.464 40.0156 157.792 42.3125 156.47 44.0625C154.706 46.3594 152.396 47.4766 149.397 47.4766L149.389 47.4688Z" fill="white"/>
<path d="M94.9299 17.3047H85.4749C84.8499 17.3047 84.3435 17.8047 84.3435 18.4219V19.1094C84.3435 19.2969 84.1299 19.4063 83.9716 19.2969C81.416 17.4766 78.267 16.4844 75.2366 16.4844C69.9909 16.4844 65.3227 18.25 61.3508 21.7422C56.7459 25.8203 54.4119 31.0469 54.4119 37.2891C54.4119 42.7031 56.2158 47.4219 59.7763 51.3281C63.9064 55.875 69.1047 58.1797 75.2366 58.1797C78.2828 58.1797 81.2182 57.2109 83.9954 55.5625C84.1536 55.4688 84.3435 55.5781 84.3435 55.7578V56.2344C84.3435 56.8516 84.8499 57.3516 85.4749 57.3516H94.9299C95.555 57.3516 96.0614 56.8516 96.0614 56.2344V18.4219C96.0614 17.8047 95.555 17.3047 94.9299 17.3047ZM75.4028 47.4688C72.863 47.4688 70.7663 46.6172 68.986 44.8516C67.1742 43.0625 66.2563 40.5156 66.2563 37.2891C66.2563 34.5312 66.9368 32.2656 68.2819 30.5703C70.1016 28.2891 72.3803 27.1875 75.2445 27.1875C78.1087 27.1875 80.1026 28.0234 81.772 29.75C83.5681 31.5938 84.478 34.1172 84.478 37.25C84.478 40.0156 83.8055 42.3125 82.4841 44.0625C80.7197 46.3594 78.4094 47.4766 75.4107 47.4766L75.4028 47.4688Z" fill="white"/>
<path d="M276.324 17.3047H266.869C266.244 17.3047 265.737 17.8047 265.737 18.4219V19.1094C265.737 19.2969 265.524 19.4063 265.365 19.2969C262.81 17.4766 259.661 16.4844 256.63 16.4844C251.385 16.4844 246.716 18.25 242.745 21.7422C238.14 25.8203 235.806 31.0469 235.806 37.2891C235.806 42.7031 237.61 47.4219 241.17 51.3281C245.3 55.875 250.499 58.1797 256.63 58.1797C259.677 58.1797 262.612 57.2109 265.389 55.5625C265.547 55.4688 265.737 55.5781 265.737 55.7578V56.2344C265.737 56.8516 266.244 57.3516 266.869 57.3516H276.324C276.949 57.3516 277.455 56.8516 277.455 56.2344V18.4219C277.455 17.8047 276.949 17.3047 276.324 17.3047ZM256.797 47.4688C254.257 47.4688 252.16 46.6172 250.38 44.8516C248.568 43.0625 247.65 40.5156 247.65 37.2891C247.65 34.5312 248.331 32.2656 249.676 30.5703C251.495 28.2891 253.774 27.1875 256.638 27.1875C259.503 27.1875 261.496 28.0234 263.166 29.75C264.962 31.5938 265.872 34.1172 265.872 37.25C265.872 40.0156 265.199 42.3125 263.878 44.0625C262.114 46.3594 259.803 47.4766 256.804 47.4766L256.797 47.4688Z" fill="white"/>
<path d="M122.164 17.4609C120.059 17.4609 117.598 18.4063 116.166 19.5234C116.016 19.6406 115.794 19.5391 115.794 19.3438V18.4063C115.794 17.7969 115.288 17.2969 114.671 17.2969H105.2C104.583 17.2969 104.076 17.7969 104.076 18.4063V56.2344C104.076 56.8438 104.583 57.3438 105.2 57.3438H114.671C115.288 57.3438 115.794 56.8438 115.794 56.2344V38.0156C115.794 34.125 116.285 31.4297 117.234 30.0156C118.105 28.7578 119.79 28.1172 122.243 28.1172C122.899 28.1172 123.983 28.125 125.597 28.2813C126.223 28.3359 126.768 27.7578 126.745 27.125V18.7969C126.745 18.2344 126.317 17.7578 125.748 17.6953C124.339 17.5313 123.129 17.4531 122.148 17.4531L122.164 17.4609Z" fill="white"/>
<path d="M230.576 2.04688C229.175 0.71875 227.514 0.046875 225.631 0.046875C223.747 0.046875 221.983 0.703125 220.559 2.00781C219.166 3.33594 218.462 4.96875 218.462 6.875C218.462 8.78125 219.166 10.5 220.551 11.8125C221.904 13.1484 223.589 13.8281 225.551 13.8281C227.514 13.8281 229.183 13.1562 230.591 11.8125C231.944 10.4688 232.633 8.82812 232.633 6.92187C232.633 5.01562 231.952 3.46094 230.607 2.07812C230.599 2.07031 230.591 2.0625 230.584 2.05469L230.576 2.04688Z" fill="white"/>
<path d="M230.259 17.3125H220.788C220.171 17.3125 219.665 17.8125 219.665 18.4219V58.1562C219.625 59.8125 218.89 65.2422 211.231 65.7656C210.645 65.8047 210.194 66.2969 210.194 66.8828V75.8672V75.8906V75.9141C210.194 75.9141 210.194 75.9219 210.194 75.9297C210.218 76.5312 210.708 77.0078 211.318 77.0078H211.389C213.296 76.9141 230.425 75.6172 231.343 59.2812C231.367 59.1953 231.383 59.1016 231.383 59V18.4219C231.383 17.8125 230.876 17.3125 230.259 17.3125Z" fill="white"/>
<path d="M299.134 0.976562C298.755 0.390625 298.042 0 297.338 0H286.372C285.486 0 284.956 0.96875 285.43 1.70312L302.948 28.4297C303.043 28.5781 303.043 28.7656 302.948 28.9141L285.43 55.6484C284.948 56.3828 285.486 57.3516 286.364 57.3516H297.378C298.082 57.3516 298.731 57 299.111 56.4219L316.217 30.1875C316.818 29.2656 316.818 28.0781 316.217 27.1562L299.134 0.976562Z" fill="white"/>
<path d="M319.73 32.5391C319.548 32.2656 319.144 32.2656 318.962 32.5391L313.242 41.3047C312.64 42.2266 312.64 43.4141 313.242 44.3359L321.004 56.2266C321.462 56.9297 322.246 57.3516 323.084 57.3516H333.869C334.755 57.3516 335.293 56.3828 334.81 55.6484L319.73 32.5391Z" fill="white"/>
<path d="M321.004 1.125L313.242 13.0156C312.64 13.9375 312.64 15.125 313.242 16.0469L318.962 24.8203C319.136 25.0938 319.54 25.0938 319.714 24.8203L334.818 1.67188C335.285 0.953125 334.763 0 333.9 0H323.084C322.246 0 321.455 0.421875 321.004 1.125Z" fill="white"/>
</g>
<defs>
<clipPath id="clip0_296_207">
<rect width="335" height="77" fill="white"/>
</clipPath>
</defs>
</svg>
