<svg width="357" height="75" viewBox="0 0 357 75" fill="none" xmlns="http://www.w3.org/2000/svg">
<g clip-path="url(#clip0_315_311)">
<path d="M342 59.7102C343.35 59.7102 344.14 59.4902 344.64 59.0402C345.03 58.6302 345.22 57.6902 345.22 56.1602V24.7102C345.22 23.1002 345.04 22.0302 344.71 21.5002C344.27 20.8202 343.32 20.4902 341.9 20.4902H340.81V18.2202L353.46 17.2402V56.1802C353.46 58.1802 354 59.3102 355.07 59.5502C355.5 59.6602 356.12 59.7202 356.94 59.7202V62.1602H342V59.7202V59.7102Z" fill="white"/>
<path d="M322.15 48.3902C323.31 47.4002 325.4 46.6202 328.42 46.0202V50.5002C328.42 53.0302 328.03 54.9602 327.27 56.2702C326.29 58.0302 325.01 58.9002 323.42 58.9002C322.48 58.9002 321.68 58.4902 321.03 57.6602C320.38 56.8302 320.05 55.6302 320.05 54.0302C320.05 51.4402 320.75 49.5702 322.14 48.3902M316.78 36.4202C317.03 35.7602 317.68 35.1202 318.73 34.5202C319.97 33.8302 321.29 33.4802 322.71 33.4802C326.52 33.4802 328.43 35.2202 328.43 38.7202V43.5302C322.79 44.6302 318.76 45.9002 316.3 47.3302C313.1 49.1802 311.49 51.7702 311.49 55.1002C311.49 57.0602 312.09 58.7802 313.3 60.2402C314.88 62.1302 317.22 63.0702 320.33 63.0702C322.1 63.0702 323.79 62.5702 325.4 61.5502C326.9 60.6202 328.03 59.4402 328.78 58.0002V59.4802C328.82 60.7402 328.82 61.6402 328.78 62.1402H339.72V59.7002H339.3C337.54 59.7002 336.67 58.5002 336.67 56.0702V41.4802C336.67 34.4402 332.68 30.9102 324.73 30.9102C321.51 30.9102 318.81 31.5902 316.62 32.9502C314.43 34.3002 313.34 36.0802 313.34 38.2902C313.34 39.8102 313.84 41.0102 314.86 41.8902C315.72 42.6202 316.75 43.0002 317.91 43.0002C319.19 43.0002 320.26 42.6002 321.11 41.7902C321.97 40.9902 322.4 40.1002 322.4 39.1102C322.4 36.6702 321.1 35.4402 318.52 35.4402C317.54 35.4402 316.75 35.7502 316.15 36.3702L316.79 36.6202C316.79 36.4802 316.79 36.4002 316.79 36.4002" fill="white"/>
<path d="M105.05 43.3402C110.04 43.3402 114.02 42.3602 117.02 40.4302C120.4 38.2602 122.09 35.0602 122.09 30.8102C122.09 26.5602 120.38 23.1102 116.96 20.9402C114.05 19.0902 110.11 18.1602 105.13 18.1602H88.56V20.5602C90.53 20.5602 91.75 20.7002 92.22 20.9802C93.02 21.4302 93.43 22.6702 93.43 24.6902V55.9702C93.43 57.5002 93.1 58.5402 92.42 59.0802C91.87 59.5102 90.83 59.7102 89.3 59.7102H88.55V62.1502H108.27V59.7102H106.22C104.64 59.7102 103.57 59.4702 102.99 58.9502C102.42 58.4502 102.13 57.4702 102.13 55.9702V43.3502H105.05V43.3402ZM113.04 30.8402C113.04 37.3102 110.4 40.5502 105.12 40.5502H102.35V20.7102H105.12C110.39 20.7102 113.04 24.0902 113.04 30.8402Z" fill="white"/>
<path d="M134.64 37.6699C135.79 33.1699 138.22 30.9199 141.95 30.9199C143.32 30.9199 144.41 31.2899 145.23 32.0399C146.05 32.7899 146.47 33.7699 146.47 35.0099C146.47 36.0899 146.12 37.0399 145.42 37.8899C144.62 38.8199 143.63 39.2899 142.42 39.2899C141.21 39.2899 140.36 38.9299 139.68 38.2299C139.03 37.6099 138.75 36.8599 138.8 35.9599C138.8 35.8799 138.85 35.6599 138.92 35.3299C137.79 36.7499 136.9 39.1799 136.24 42.5999C135.7 45.3399 135.43 47.8599 135.43 50.1199V56.1699C135.43 57.5899 135.6 58.5199 135.91 58.9399C136.3 59.4599 137.35 59.6999 139.05 59.6999H140.08V62.1399H123.49V59.6999H124.11C125.25 59.6999 126.07 59.4999 126.57 59.0899C127.07 58.6999 127.31 57.6999 127.31 56.1699V42.9799C127.31 38.4299 127.19 35.9099 126.94 35.3999C126.59 34.5799 125.9 34.1699 124.89 34.1699H124.02V31.7299H134.41L134.62 37.6699H134.64Z" fill="white"/>
<path d="M169.15 57.3702C169.17 57.6002 168.8 57.4802 168.63 57.5702L169.06 57.3302C168.54 58.7502 167.59 60.0302 166.18 61.1202C164.52 62.4202 162.65 63.0602 160.57 63.0602C157.06 63.0602 154.58 62.1002 153.14 60.1602C151.99 58.6402 151.41 56.2602 151.41 53.0202V40.2802C151.41 37.4102 151.28 35.7402 151.03 35.2602C150.68 34.6202 149.86 34.2802 148.54 34.2802H148.28V31.7302H159.77V54.0802C159.77 57.0402 161 58.5202 163.46 58.5202C165.49 58.5202 166.87 57.1102 167.58 54.2502C167.89 53.1002 168.04 51.5302 168.04 49.5302V40.2802C168.04 37.1202 167.89 35.3702 167.59 35.0402C167.15 34.5402 166.22 34.2702 164.81 34.2702H163.94V31.7202H176.48V54.5402C176.48 57.0402 176.63 58.5002 176.93 58.8902C177.32 59.4302 178.07 59.6902 179.17 59.6902H179.96V62.1302H168.83L168.64 57.2302L168.83 57.3602L168.89 57.4902L169.16 57.3602L169.15 57.3702Z" fill="white"/>
<path d="M193.73 31.04C189.63 31.04 186.32 32.8 183.81 36.3C181.59 39.42 180.48 42.98 180.48 46.99C180.48 51.39 181.29 54.96 182.96 57.72C185.07 61.29 188.33 63.07 192.76 63.07C195.04 63.07 197.01 62.37 198.7 60.96C200.01 59.83 200.87 58.59 201.27 57.24L201.06 57.41L200.81 57.17L201.02 62.15H211.92V59.74H211.37C210.12 59.74 209.3 59.41 208.9 58.76C208.59 58.3 208.44 57.43 208.44 56.19V17.23L195.68 18.21V20.49H196.51C198.12 20.49 199.15 20.93 199.63 21.8C199.91 22.31 200.07 23.47 200.13 25.29C200.13 30.18 200.21 33.04 200.38 33.86C199.2 31.99 196.97 31.06 193.73 31.06M200.2 43.7V49.86C200.2 51.54 200.07 52.95 199.82 54.06C199.06 57.43 197.45 59.13 195.01 59.13C191.59 59.13 189.87 55.08 189.87 47C189.87 43.4 190.07 40.75 190.46 39.04C191.25 35.72 192.81 34.07 195.14 34.07C198.51 34.07 200.2 37.29 200.2 43.72" fill="white"/>
<path d="M221.21 46.2399H239.71C239.68 41.6699 238.66 38.0599 236.64 35.4199C234.37 32.4199 231 30.9199 226.54 30.9199C222.44 30.9199 219.05 32.3999 216.35 35.3399C213.63 38.3699 212.28 42.2399 212.28 46.9299C212.28 51.6199 213.46 55.5899 215.85 58.4199C218.4 61.5299 222.04 63.0599 226.74 63.0599C230.39 63.0599 233.47 61.7099 235.97 59.0299C238.15 56.6799 239.29 54.1699 239.37 51.4699H236.29C236.26 53.4699 235.5 55.3399 234.02 57.0799C232.34 59.0799 230.33 60.0599 227.99 60.0599C224.65 60.0599 222.54 57.6699 221.67 52.8999C221.36 51.3099 221.2 49.1099 221.2 46.2499M226.46 33.2399C229.66 33.2399 231.27 36.7199 231.27 43.6799H221.22C221.25 42.5899 221.29 41.6899 221.35 40.9699C221.78 35.8199 223.48 33.2399 226.46 33.2399Z" fill="white"/>
<path d="M251.75 35.6899C252.44 34.2799 253.55 33.1399 255.07 32.2499C256.59 31.3599 258.27 30.9199 260.13 30.9199C266.22 30.9199 269.28 34.2299 269.28 40.8599V54.6999C269.28 56.2299 269.29 57.1599 269.32 57.4699C269.43 58.9499 270.37 59.6899 272.12 59.6899H272.76V62.1299H260.92V39.7799C260.92 38.2299 260.74 37.1299 260.37 36.4499C259.83 35.4699 258.83 34.9699 257.34 34.9699C255.93 34.9699 254.81 35.6499 253.96 37.0299C253.12 38.4099 252.69 40.4499 252.69 43.1399V54.5999C252.69 57.1699 252.81 58.6099 253.07 58.8899C253.58 59.4299 254.48 59.6899 255.78 59.6899H256.29V62.1299H240.87V59.6899H241.69C243.26 59.6899 244.1 58.9499 244.22 57.4699C244.28 57.1199 244.3 56.1199 244.3 54.4699V39.2599C244.3 36.8999 244.12 35.4599 243.77 34.9399C243.43 34.4199 242.69 34.1599 241.56 34.1599H240.86V31.7199H251.76V35.6799L251.75 35.6899Z" fill="white"/>
<path d="M284.22 63.0599C279.16 63.0599 276.62 60.1899 276.62 54.4599V34.2799H271.18V31.8399H272.01C274.99 31.8399 277.5 30.1699 279.57 26.7999C281.35 23.9799 282.25 21.0799 282.31 18.1499H284.86V31.8399H290.67V34.2799H284.86V55.4699C284.86 57.9699 285.63 59.2299 287.17 59.2299C288.53 59.2299 289.41 58.0499 289.81 55.6799C289.95 54.8299 290.02 53.1299 290.02 50.5899H292.87C292.87 54.7699 292.49 57.6399 291.74 59.1299C290.48 61.7599 287.97 63.0499 284.21 63.0499" fill="white"/>
<path d="M38.05 2.4C16.62 2.4 2.63 20.01 2.63 36.4C2.63 45.81 4.92 50.5 7.44 55C10.61 46.48 16.95 29.52 16.95 29.52C16.95 29.52 19.9 27.99 19.9 28.22L24.16 17.4L26.9 15.98L30.29 8.76L37.71 9.96L52.8 18.37L69.74 23.07C65.37 11.92 53.02 2.4 38.04 2.4M37.82 74.99C28.53 74.99 17.17 71.72 8.96 61.66H66.58C59.9 70.3 48.44 74.99 37.82 74.99ZM49.2 59.92H43.95L53.7 47.78L54.68 49.64L49.21 59.92H49.2ZM54.34 21.32L37.62 11.6L31.49 10.5V14.98L36.19 19.36L29.63 18.81C29.63 18.81 29.84 19.14 35.3 24.94L60.23 29.09L64.6 31.93L53.24 32.48L48.54 49.64L33.12 59.92H23.06L26.45 53.24L25.9 53.02L16.82 59.92H14.64L23.93 46.9C24.37 43.19 24.15 44.83 24.7 38.15L23.28 36.19L19.56 50.62L11.8 59.92H9.83L14.42 53.46L20.87 33.68L19.23 34.44L16.39 42.31L14.43 43.4C14.43 43.4 9.84 54.55 7.43 60.01C3.94 55 0 48.22 0 36.4C0 18.69 15.2 0 38.05 0C60.9 0 71.73 17.49 73.69 26.56L54.34 21.32ZM65.16 46.89L61.98 49.63L55.65 59.91H51.49L55.65 52.57L58.92 49.85L63.64 36.62L68.65 38.7L65.15 46.89H65.16ZM68.12 59.92H59.71L67.68 47.34L70.08 39.14L75.11 40.89C74.67 47.23 72.6 53.67 68.12 59.92ZM57.83 44.82L55.32 45.26L55.99 40.22L55.32 39.24L55.99 33.55L62.43 36.18L57.84 44.82H57.83Z" fill="white"/>
<path d="M294.9 59.7099H295.7C296.9 59.7099 297.66 59.3199 297.97 58.5799C298.16 58.0399 298.26 56.7099 298.26 54.5699V38.6699C298.26 36.5099 298.06 35.2499 297.61 34.8699C297.18 34.4899 296.55 34.2999 295.71 34.2999H294.91V31.8599H306.51V54.5599C306.51 57.0599 306.66 58.5199 306.97 58.9399C307.36 59.4599 308.08 59.6999 309.17 59.6999H310V62.1399H294.9V59.6999V59.7099ZM297.11 23.3499C297.11 21.9799 297.59 20.8199 298.56 19.8499C299.53 18.8899 300.7 18.3999 302.07 18.3999C303.44 18.3999 304.62 18.8899 305.6 19.8499C306.59 20.8199 307.08 21.9799 307.08 23.3499C307.08 24.7199 306.59 25.9099 305.6 26.8899C304.62 27.8899 303.44 28.3799 302.07 28.3799C300.7 28.3799 299.53 27.8799 298.56 26.8899C297.59 25.9099 297.11 24.7299 297.11 23.3499Z" fill="white"/>
</g>
<defs>
<clipPath id="clip0_315_311">
<rect width="356.94" height="74.99" fill="white"/>
</clipPath>
</defs>
</svg>
