<svg width="261" height="118" viewBox="0 0 261 118" fill="none" xmlns="http://www.w3.org/2000/svg">
<g clip-path="url(#clip0_315_219)">
<path d="M13.8011 33.4246H23.6817L32.2555 49.636H44.7376L34.2096 31.4821C35.663 30.8102 36.9576 29.9795 38.1057 28.9777C41.4888 26.0091 43.1865 21.9288 43.1865 16.7612C43.1865 11.5935 41.4888 7.37882 38.1057 4.43462C34.7104 1.47821 30.0204 0 24.0359 0H2.94336V49.6238H13.8011V33.4124V33.4246ZM24.3412 9.61445C26.8205 9.61445 28.7502 10.2497 30.1181 11.508C31.486 12.7785 32.17 14.5744 32.17 16.8955C32.17 19.2167 31.486 20.8781 30.1181 22.1731C28.7502 23.4681 26.8205 24.1155 24.3412 24.1155H13.8011V9.61445H24.3412Z" fill="white"/>
<path d="M85.2007 36.6008H74.6605C74.404 37.5293 73.9277 38.3722 73.2315 39.1174C72.5354 39.8627 71.656 40.449 70.5934 40.8644C69.5309 41.2798 68.2241 41.4875 66.673 41.4875C64.7555 41.4875 63.0334 41.0965 61.4823 40.3269C59.9312 39.5572 58.722 38.3356 57.8427 36.6863C57.3175 35.6968 56.9511 34.5362 56.7435 33.1924H85.3594C85.4083 32.6793 85.5182 31.7264 85.5182 30.0894C85.5182 25.948 84.6877 22.4051 83.0389 19.4243C81.3901 16.4557 79.1062 14.1467 76.2116 12.5219C73.317 10.8971 69.9828 10.0786 66.2088 10.0786C62.4349 10.0786 58.893 10.9216 55.9008 12.5952C52.9085 14.2811 50.5513 16.6267 48.8414 19.6564C47.1315 22.6861 46.2888 26.2045 46.2888 30.236C46.2888 34.2675 47.1682 37.798 48.9269 40.8155C50.6856 43.8453 53.1039 46.1908 56.1694 47.8767C59.2472 49.5626 62.7402 50.3933 66.673 50.3933C69.9828 50.3933 72.9384 49.807 75.5521 48.6464C78.1657 47.4858 80.3153 45.8732 82.0252 43.7964C83.7351 41.7318 84.7854 39.3251 85.2007 36.5886M61.2014 19.8152C62.6181 19.1189 64.1814 18.7646 65.8913 18.7646C67.6012 18.7646 69.0668 19.0822 70.4591 19.7297C71.8514 20.3772 72.9873 21.3667 73.8666 22.7106C74.4773 23.639 74.8681 24.7507 75.0513 26.0457H56.8778C57.0854 25.0073 57.3908 24.1033 57.7816 23.3336C58.6365 21.6844 59.7724 20.4994 61.1891 19.803" fill="white"/>
<path d="M101.237 27.9148C101.237 25.2272 101.97 23.1504 103.447 21.6722C104.925 20.194 106.892 19.461 109.383 19.461C110.983 19.461 112.388 19.803 113.609 20.4749C114.818 21.1469 115.771 22.112 116.442 23.3825C117.114 24.653 117.456 26.1679 117.456 27.9148V49.6237H128.082V26.2778C128.082 22.9183 127.361 20.0229 125.908 17.5918C124.454 15.1607 122.512 13.3038 120.058 12.0088C117.603 10.7139 114.794 10.0664 111.643 10.0664C108.748 10.0664 106.183 10.665 103.973 11.85C102.47 12.6563 101.2 13.6459 100.15 14.8309L98.1589 10.8483H90.6355V49.6237H101.261V27.9148H101.237Z" fill="white"/>
<path d="M172.966 10.8605H165.442L163.452 14.8553C162.609 14.0123 161.681 13.2549 160.679 12.6074C158.066 10.9338 155.037 10.0908 151.568 10.0908C148.099 10.0908 145.009 10.9338 142.115 12.6074C139.22 14.2933 136.888 16.6389 135.104 19.6686C133.321 22.6983 132.43 26.2167 132.43 30.2482C132.43 34.2797 133.321 37.8103 135.104 40.8278C136.888 43.8575 139.22 46.2031 142.115 47.8889C145.009 49.5748 148.161 50.4056 151.568 50.4056C154.976 50.4056 158.066 49.5626 160.679 47.8889C161.681 47.2415 162.609 46.4963 163.452 45.6411L165.442 49.6359H172.966V10.8605ZM158.237 39.6183C156.734 40.4979 155.037 40.9377 153.119 40.9377C151.202 40.9377 149.504 40.4979 148.002 39.6183C146.5 38.7387 145.315 37.5048 144.435 35.8923C143.556 34.2919 143.116 32.3983 143.116 30.236C143.116 28.0736 143.556 26.1068 144.435 24.4942C145.315 22.8938 146.5 21.6477 148.002 20.7681C149.504 19.8885 151.202 19.4487 153.119 19.4487C155.037 19.4487 156.734 19.8885 158.237 20.7681C159.739 21.6477 160.924 22.8938 161.803 24.4942C162.682 26.0945 163.122 28.0126 163.122 30.236C163.122 32.4594 162.682 34.2919 161.803 35.8923C160.924 37.4926 159.739 38.7387 158.237 39.6183Z" fill="white"/>
<path d="M205.246 32.8013C205.246 35.489 204.562 37.5169 203.194 38.8852C201.826 40.2535 199.945 40.9376 197.576 40.9376C195.207 40.9376 193.387 40.2535 191.994 38.8852C190.602 37.5169 189.906 35.489 189.906 32.8013V10.8604H179.28V33.9619C179.28 39.0807 180.954 43.0999 184.324 46.0197C187.683 48.9394 192.104 50.4054 197.576 50.4054C201.191 50.4054 204.367 49.7335 207.115 48.3897C209.85 47.0459 212 45.1279 213.551 42.6479C215.102 40.1679 215.872 37.2726 215.872 33.9619V10.8604H205.246V32.8013Z" fill="white"/>
<path d="M232.543 0H221.917V49.6238H232.543V0Z" fill="white"/>
<path d="M51.1619 75.5109H23.2543V84.6611H39.9744C39.6935 86.3837 39.1195 87.8863 38.2645 89.1568C37.1043 90.8671 35.5043 92.1377 33.4524 92.9928C31.4128 93.848 29.019 94.2756 26.2832 94.2756C23.3398 94.2756 20.7139 93.6281 18.4178 92.3331C16.1217 91.0382 14.3263 89.2057 13.0317 86.8234C11.7371 84.4412 11.0897 81.6558 11.0897 78.4429C11.0897 75.2299 11.7248 72.469 12.9828 70.1478C14.253 67.8267 16.0117 66.0186 18.259 64.7236C20.5063 63.4287 23.0833 62.7812 25.9779 62.7812C28.4572 62.7812 30.5945 63.1721 32.3777 63.9418C34.1608 64.7114 35.602 65.701 36.7134 66.886C37.8248 68.071 38.5576 69.2926 38.924 70.5265H50.2459C49.7329 67.4235 48.4261 64.5282 46.3254 61.8405C44.2369 59.1529 41.4644 56.9783 38.0325 55.3291C34.6005 53.6799 30.5457 52.8491 25.9046 52.8491C22.1795 52.8491 18.7475 53.4966 15.5965 54.7916C12.4454 56.0865 9.70963 57.8824 7.37688 60.1791C5.05633 62.4758 3.23654 65.1757 1.95414 68.2787C0.659517 71.3817 0.012207 74.7657 0.012207 78.4429C0.012207 82.1201 0.67173 85.5041 1.99078 88.5948C3.30982 91.6979 5.14183 94.41 7.49901 96.7311C9.85619 99.0522 12.6164 100.86 15.7919 102.119C18.9674 103.389 22.4238 104.024 26.1366 104.024C30.9487 104.024 35.2478 103.059 39.0462 101.117C42.8445 99.1744 45.849 96.4012 48.0719 92.7851C50.2947 89.169 51.4061 84.8444 51.4061 79.8356C51.4061 79.1148 51.3939 78.3696 51.3695 77.6244C51.3451 76.8791 51.284 76.1706 51.1741 75.4865" fill="white"/>
<path d="M113.34 66.2383C110.189 64.5646 106.623 63.7217 102.641 63.7217C98.6596 63.7217 95.1055 64.5646 91.9789 66.2383C88.8523 67.9242 86.3852 70.2698 84.5776 73.2995C82.77 76.3292 81.8662 79.8476 81.8662 83.8791C81.8662 87.9105 82.77 91.4411 84.5776 94.4586C86.3852 97.4883 88.8523 99.8339 91.9789 101.52C95.1055 103.206 98.6596 104.036 102.641 104.036C106.623 104.036 110.189 103.193 113.34 101.52C116.491 99.8461 118.97 97.4883 120.778 94.4586C122.586 91.4289 123.489 87.9105 123.489 83.8791C123.489 79.8476 122.586 76.317 120.778 73.2995C118.97 70.2698 116.491 67.9242 113.34 66.2383ZM111.484 89.5353C110.604 91.1357 109.407 92.3818 107.881 93.2614C106.354 94.141 104.608 94.5808 102.653 94.5808C100.699 94.5808 99.026 94.141 97.4993 93.2614C95.9727 92.3818 94.7758 91.1479 93.8964 89.5353C93.017 87.935 92.5774 86.0414 92.5774 83.8791C92.5774 81.7167 93.017 79.7376 93.8964 78.1372C94.7758 76.5369 95.9727 75.2908 97.4993 74.4112C99.026 73.5316 100.736 73.0918 102.653 73.0918C104.571 73.0918 106.366 73.5316 107.881 74.4112C109.407 75.2908 110.604 76.5369 111.484 78.1372C112.363 79.7376 112.803 81.6556 112.803 83.8791C112.803 86.1025 112.363 87.935 111.484 89.5353Z" fill="white"/>
<path d="M153.681 86.4444C153.681 89.1321 152.997 91.16 151.629 92.5283C150.261 93.8965 148.38 94.5807 146.011 94.5807C143.642 94.5807 141.822 93.8965 140.429 92.5283C139.037 91.16 138.341 89.1321 138.341 86.4444V64.5034H127.715V87.605C127.715 92.7237 129.389 96.743 132.759 99.6628C136.118 102.583 140.539 104.049 146.011 104.049C149.626 104.049 152.802 103.377 155.55 102.033C158.285 100.689 160.435 98.7709 161.986 96.291C163.537 93.811 164.307 90.9157 164.307 87.605V64.5034H153.681V86.4444Z" fill="white"/>
<path d="M201.728 66.2383C198.834 64.5646 195.658 63.7217 192.19 63.7217C188.721 63.7217 185.753 64.5646 183.115 66.2383C182.114 66.8736 181.198 67.6066 180.355 68.4373L178.376 64.4913H170.853V118H181.479V100.042C182.102 100.616 182.773 101.141 183.494 101.605C186.022 103.23 188.917 104.049 192.178 104.049C195.634 104.049 198.822 103.206 201.716 101.532C204.611 99.8583 206.944 97.5005 208.727 94.4708C210.51 91.4411 211.401 87.9227 211.401 83.8913C211.401 79.8598 210.51 76.3292 208.727 73.3117C206.944 70.282 204.611 67.9364 201.716 66.2505M199.408 89.5353C198.529 91.1357 197.344 92.3818 195.842 93.2614C194.339 94.141 192.642 94.5808 190.724 94.5808C188.807 94.5808 187.109 94.141 185.607 93.2614C184.105 92.3818 182.92 91.1479 182.04 89.5353C181.161 87.935 180.721 86.0414 180.721 83.8791C180.721 81.7167 181.161 79.7376 182.04 78.1372C182.92 76.5369 184.105 75.2908 185.607 74.4112C187.109 73.5316 188.807 73.0918 190.724 73.0918C192.642 73.0918 194.339 73.5316 195.842 74.4112C197.344 75.2908 198.529 76.5369 199.408 78.1372C200.287 79.7376 200.727 81.6556 200.727 83.8791C200.727 86.1025 200.287 87.935 199.408 89.5353Z" fill="white"/>
<path d="M64.6454 64.4912H55.864V103.267H66.4897V86.9209C66.4897 84.673 67.0393 82.4252 68.1995 80.5072C69.9094 77.6974 73.3169 74.7165 80.132 74.7165V64.479C74.5261 64.479 69.9216 66.9223 66.3065 70.062L64.6454 64.5157V64.4912Z" fill="white"/>
<path d="M254.564 39.8627C252.646 39.8627 251.254 39.4229 250.374 38.5433C249.495 37.6637 249.055 36.271 249.055 34.353V19.6931H260.218V10.8483H249.055V0H238.43V35.2082C238.43 38.5189 238.967 41.2432 240.054 43.3933C241.141 45.5434 242.851 47.1194 245.171 48.1211C247.492 49.1351 250.521 49.636 254.246 49.636H260.988V39.8627H254.551H254.564Z" fill="white"/>
</g>
<defs>
<clipPath id="clip0_315_219">
<rect width="261" height="118" fill="white"/>
</clipPath>
</defs>
</svg>
