<svg width="360" height="63" viewBox="0 0 360 63" fill="none" xmlns="http://www.w3.org/2000/svg">
<g clip-path="url(#clip0_315_171)">
<path d="M47.5635 28.8927C47.4755 26.6225 46.8418 24.3699 45.68 22.3302L35.3646 4.34544C34.5725 2.97973 34.0268 1.5076 33.7451 0L33.305 0.744932C30.7174 5.17905 30.6998 10.6596 33.2522 15.1115L41.5081 29.5135C44.0605 33.9654 44.0429 39.4459 41.4552 43.8801L41.0152 44.625C40.7159 43.1174 40.1702 41.6453 39.3781 40.2796L31.8264 27.1014L27.0031 18.6943C26.211 17.3285 25.6829 15.8564 25.3837 14.3488L24.9436 15.0938C22.3735 19.5101 22.3383 24.973 24.8732 29.4071L33.1466 43.8446C35.6991 48.2965 35.6814 53.777 33.0938 58.2111L32.6537 58.9561C32.3545 57.4485 31.8088 55.9764 31.0342 54.6106L20.7189 36.6258C19.3282 34.2137 18.7121 31.5 18.8353 28.8218C7.7102 31.6774 0.0176656 37.7965 6.2589e-05 44.9265C-0.0351435 54.8412 14.7866 62.9291 33.0762 63C51.3834 63.0532 66.2403 55.0718 66.2756 45.1571C66.2932 38.027 58.6534 31.837 47.5459 28.9105M78.7561 59.6655C78.8969 57.1115 79.2666 55.3733 79.9531 53.3868C83.4385 55.0186 87.9097 55.8345 91.3423 55.8522C97.1337 55.8699 100.373 54.0253 100.39 50.3539C100.39 46.7534 98.0491 45.0684 92.2048 42.4966L89.0363 41.1132C83.1921 38.5414 79.2138 35.2424 79.249 28.6444C79.2666 21.5498 84.1955 17.027 94.282 17.0625C98.3307 17.0625 102.133 17.6478 105.671 18.9071C105.478 21.3902 105.037 23.3235 104.404 25.1149C101.042 23.8556 97.0633 23.288 94.194 23.2703C88.7722 23.2703 86.2726 25.3632 86.2726 28.6622C86.2726 31.8902 88.6842 33.7703 93.0322 35.6503L96.3944 37.087C104.298 40.4747 107.572 44.022 107.555 50.0524C107.537 57.2002 102.098 62.0954 91.5183 62.06C86.4134 62.06 82.2415 61.2796 78.7561 59.6478M141.036 30.152L140.93 61.2441H134.646L134.294 57.484C132.533 60.2154 129.858 61.9358 125.51 61.9358C117.289 61.9003 111.832 55.9231 111.867 45.4763C111.903 34.5329 117.782 28.3252 129.294 28.3784C133.783 28.3784 137.445 28.9105 141.053 30.152M134.118 54.1318L134.188 34.6039C132.762 34.3556 131.196 34.2137 129.277 34.2137C122.183 34.1959 118.873 38.5236 118.856 45.4941C118.838 51.826 121.373 56.3133 127.464 56.3488C130.139 56.3488 132.322 55.4975 134.135 54.1318M176.066 40.4569L175.995 61.3505H169.148L169.218 41.6098C169.218 36.6968 167.616 34.3201 160.769 34.3024C159.149 34.3024 157.213 34.4797 155.347 34.7812L155.259 61.2796H148.411L148.517 30.1698C152.883 29.1233 157.671 28.4671 160.98 28.4671C172.44 28.5025 176.083 32.9367 176.066 40.4569ZM194.989 56.3133C196.978 56.3133 198.844 55.9586 200.34 55.4088C200.147 57.2711 199.883 59.3818 199.513 61.1909C197.647 61.9358 195.658 62.1664 193.722 62.1664C187.068 62.1486 182.843 59.0802 182.861 51.5068L182.966 18.8539C185.079 18.1799 187.701 17.8784 189.814 17.8784L189.779 29.6377L200.604 29.6731C200.481 31.7838 200.288 33.7171 199.971 35.5084L189.761 35.473L189.708 50.7086C189.708 54.7525 191.68 56.3133 194.989 56.3311M231.815 30.4535L231.709 61.5456H225.425L225.055 57.7855C223.295 60.5169 220.619 62.2373 216.271 62.2373C208.051 62.2196 202.594 56.2247 202.629 45.7779C202.664 34.8345 208.543 28.6267 220.056 28.6799C224.545 28.6799 228.206 29.212 231.815 30.4713M224.879 54.4333L224.949 34.9054C223.524 34.6571 221.957 34.5152 220.038 34.5152C212.944 34.4975 209.635 38.8429 209.6 45.7956C209.582 52.1275 212.117 56.6149 218.225 56.6503C220.901 56.6503 223.084 55.799 224.897 54.4333M266.827 40.7584L266.757 61.652H259.909L259.98 41.9113C259.98 36.9983 258.378 34.6216 251.548 34.6039C249.928 34.6039 247.992 34.7812 246.126 35.0828L246.038 61.5811H239.19L239.296 30.4713C243.661 29.4248 248.45 28.7686 251.759 28.7686C263.219 28.8041 266.862 33.2382 266.845 40.7584M301.646 18.2508L301.505 61.7762H295.221L294.869 57.7677C293.108 60.6765 290.433 62.4856 285.944 62.4679C277.723 62.4324 272.266 56.4552 272.302 46.0084C272.337 35.065 278.216 28.8573 289.729 28.9105C291.524 28.9105 293.214 29.1056 294.834 29.4248L294.869 19.1554C296.981 18.4105 299.41 18.2331 301.664 18.2508M294.746 54.5397L294.816 35.3843C293.02 35.0118 291.137 34.7458 289.341 34.7458C282.564 34.728 279.308 38.9493 279.29 46.0262C279.272 52.3758 281.807 56.8454 287.916 56.8809C290.662 56.8809 292.897 55.9586 294.763 54.5397M335.972 48.5802L314.126 48.5093C314.971 54.0431 318.21 56.7213 324.301 56.7568C328.033 56.7568 331.835 55.9764 335.268 54.4333C335.021 56.2424 334.634 58.6013 334.194 60.641C331.078 62.06 327.769 62.6098 324.107 62.5921C312.648 62.5566 307.138 56.1892 307.173 45.565C307.208 36.3066 311.521 28.9814 322.418 29.0169C332.187 29.0524 336.412 35.473 336.377 43.2948C336.377 45.228 336.236 46.7711 335.99 48.5802M314.021 42.7804L329.459 42.8336C329.459 37.7255 326.748 34.7458 322.013 34.728C317.154 34.728 314.602 37.4949 314.021 42.7804ZM360 29.3894C360 31.4468 359.736 33.9299 359.366 35.2247C357.747 35.0296 356.127 34.9586 354.209 34.9586C352.519 34.9586 350.846 35.065 349.174 35.3133L349.086 61.9358H342.239L342.344 30.826C345.266 29.8328 350.195 29.1056 354.05 29.1233C356.163 29.1233 358.539 29.1943 360.018 29.3894" fill="white"/>
</g>
<defs>
<clipPath id="clip0_315_171">
<rect width="360" height="63" fill="white"/>
</clipPath>
</defs>
</svg>
